<?xml version="1.0" encoding="utf-8"?>
<!-- Generator: Adobe Illustrator 26.3.1, SVG Export Plug-In . SVG Version: 6.00 Build 0)  -->
<svg version="1.1" id="Ebene_1" xmlns="http://www.w3.org/2000/svg" xmlns:xlink="http://www.w3.org/1999/xlink" x="0px" y="0px"
	 viewBox="0 0 1417.3 1417.3" style="enable-background:new 0 0 1417.3 1417.3;" xml:space="preserve">
<style type="text/css">
	.st0{fill:#003057;stroke:#003057;stroke-width:1.0806;stroke-miterlimit:10;}
	.st1{fill:#003057;stroke:#003057;stroke-miterlimit:10;}
</style>
<path class="st0" d="M592.3,766.6c-65.7,0-131.3,0.1-197,0.1l-0.1-47.2c72.1,0,144.1,0,216.2,0"/>
<path class="st1" d="M561.7,985.4c5.2-15,12.8-36.7,22.2-63c12-33.5,16.1-43.9,32.6-89.4c7-19.4,14-38.7,23.3-65
	c18.6-52.4,17.8-51.9,29.8-84.9c10.9-29.9,12.4-32.6,16-45.3c4.6-15.9,10.8-37.5,12.7-65.5c1.3-19.7,3.3-53.9-11.8-93.1
	c-4.4-11.5-10.5-26.9-23.9-43.6c-6.8-8.4-33.5-40.6-79.9-49.5c-26.6-5.1-47.7-0.2-59.6,2.6c-44.5,10.5-72,37.7-87,52.5
	c-5.4,5.3-26.8,27-43.9,60c-4.6,9-8.5,17.8-14.2,31.1c-11.4,26.4-18.9,46.7-20.6,51.4c-1.4,3.9-20.3,51.9-58.1,147.8
	c-21,53.4-39.3,99.8-60.2,151.3c-3.7,9-11.7,28.9-22.5,56.1c-11.4,28.7-20.5,52.3-26.5,67.9c14.6,5.8,29.3,11.6,43.9,17.4
	c57.4-148.3,89.7-228.8,108.9-275.3c19.9-48.3,45.8-112.9,59.1-148.8c1.4-3.7,7.7-20.7,17.7-44.1c6.4-14.9,9.6-22.4,14.6-31.8
	c6-11,17.3-31.5,38.2-51.5c11.2-10.7,25.7-24.5,49.5-33.2c12-4.4,30.9-11.2,54-6.2c33.6,7.3,51.5,34.3,55.9,40.9
	c7.3,11,10.5,20.6,13,28.3c2.7,8.1,8.4,28.2,6.5,61.7c-1.6,27-9.3,50.5-24.4,96.4c-4.3,13-9.4,27.4-19.5,55.9
	c-9.9,27.9-14.9,41.8-25.9,72c-11.7,32.1-34.3,95.4-81.4,229.6l0.1-0.5c14.8,5.3,29.5,10.6,44.3,15.9c181.9-2.8,362.2,2.8,544.1,0
	c0-16,1.4-31.6,1.4-47.6c-8.8-0.1-18.5-0.2-30.7-1.5c-2.4-0.3-23.8-5.1-35.9-9.6c-18.6-6.9-33.8-12.9-41.3-16.9
	c-23.6-12.2-40.5-21.5-52.2-29.4c-11.3-7.5-28.6-20.3-46.8-39.2c-23.8-24.7-37.2-47.7-41.8-55.9c-16.7-29.7-23.9-56-27.2-70.1
	c-3.1-13.7-7.3-37-6.6-66.2c0.9-33.9,8.2-61.5,14.6-80.1c10.7-30.7,25.1-54.1,36.6-69.8c4.9-6.6,11.7-15.3,20.8-24.8
	c6.4-6.6,15.6-15.4,30.6-26.8c19.3-14.7,40-30.4,71.2-43c27.8-11.2,51.1-14.8,65-16.9c18.2-2.7,33.9-3.4,45.9-3.4l0,0.5
	c0.1-15.8,0.1-31.7,0.2-47.5c-6-0.1-13.7-0.2-22.7,0.3c-5.8,0.3-20.2,1.2-38.7,4.4c-14.5,2.5-37.7,7.6-65,18.3
	c-14.6,5.7-26.4,11.5-34.5,15.8c-25.7,13.6-44.1,27.6-53.3,35c-33.2,26.7-53.1,53.5-59.5,62.4c-8.5,11.8-23.4,34.5-36,66
	c-11.7,29.3-16.8,54.7-19.1,70.7c-7.3,49.8-1,91.5,4.9,116.9c6.4,27.6,24.1,86.9,75,142.1c28.5,31,73.6,55.8,94.3,67.3
	c-121,1.8-255.4-0.7-376.4,1l78.7-218.9c42.2,0,60.6-0.2,99.5-0.2l0.5-47.2c-251.3-3.4-51.9-0.1-83.4-0.1"/>
</svg>
