<svg xmlns="http://www.w3.org/2000/svg" viewBox="0 0 1276.59 1276.59"><defs><style>.cls-1{fill:#fff;}.cls-2{fill:none;stroke:#fff;stroke-width:0.84px;}.cls-2,.cls-3,.cls-4{stroke-miterlimit:10;}.cls-3,.cls-4{fill:#003057;stroke:#003057;}.cls-3{stroke-width:1.22px;}.cls-4{stroke-width:1.13px;}</style></defs><g id="Ebene_2" data-name="Ebene 2"><rect class="cls-1" x="0.42" y="0.42" width="1275.75" height="1275.75" rx="85.04"/><rect class="cls-2" x="0.42" y="0.42" width="1275.75" height="1275.75" rx="85.04"/></g><g id="Ebene_1" data-name="Ebene 1"><path class="cls-3" d="M552.86,697.52l-222,.12-.09-53.22,243.7.05"/><path class="cls-4" d="M518.38,944.18c5.84-16.86,14.41-41.39,25-71C557,835.4,561.59,823.7,580.2,772.34c7.92-21.82,15.82-43.62,26.32-73.23,20.94-59.07,20-58.5,33.61-95.75,12.27-33.69,14-36.75,18.07-51,5.16-18,12.15-42.29,14.26-73.87,1.5-22.26,3.67-60.75-13.31-104.95-5-12.94-11.82-30.34-26.95-49.14-7.66-9.51-37.77-45.79-90-55.8-30-5.73-53.78-.22-67.21,3C424.8,283.41,393.77,314,376.87,330.7a276.72,276.72,0,0,0-49.45,67.64c-5.24,10.11-9.58,20.11-16.07,35.09-12.9,29.77-21.29,52.59-23.25,57.91-1.63,4.42-22.93,58.46-65.52,166.55-23.71,60.16-44.33,112.49-67.85,170.57-4.12,10.19-13.19,32.55-25.36,63.25-12.83,32.39-23.14,59-29.9,76.56L149,987.93C213.73,820.74,250.17,730,271.72,677.55c22.39-54.48,51.6-127.21,66.62-167.76,1.56-4.21,8.68-23.37,19.93-49.73,7.19-16.83,10.77-25.28,16.49-35.83,6.75-12.45,19.46-35.47,43.12-58,12.62-12,29-27.66,55.8-37.41,13.57-4.94,34.78-12.66,60.87-7,37.86,8.25,58.06,38.65,63,46.07,8.2,12.35,11.86,23.27,14.68,31.92,3,9.16,9.49,31.8,7.3,69.54C617.75,499.79,609,526.27,592,578c-4.79,14.62-10.59,30.94-22,63-11.18,31.44-16.77,47.16-29.17,81.11-13.23,36.21-38.7,107.59-91.7,258.8l.12-.55,49.94,17.95c205-3.1,408.28,3.1,613.32,0,0-18,1.63-35.59,1.61-53.62a321.19,321.19,0,0,1-34.58-1.74c-2.65-.3-26.87-5.77-40.42-10.78-21-7.77-38.05-14.58-46.61-19C966,899.33,947,888.88,933.71,880A318.41,318.41,0,0,1,881,835.86a313.8,313.8,0,0,1-47.13-63A298.94,298.94,0,0,1,853.5,450.33,269.48,269.48,0,0,1,877,422.44a287.84,287.84,0,0,1,34.45-30.23c21.78-16.55,45.08-34.26,80.32-48.51,31.35-12.67,57.57-16.71,73.23-19a356.37,356.37,0,0,1,51.72-3.81v.59l.21-53.58c-6.73-.17-15.43-.19-25.56.31a357.34,357.34,0,0,0-43.59,5,381.54,381.54,0,0,0-172.21,78,364.84,364.84,0,0,0-67,70.39,353.23,353.23,0,0,0-56.65,285.81,357.23,357.23,0,0,0,84.54,160.21c32.13,34.9,83,62.9,106.27,75.84-136.43,2-287.91-.82-424.34,1.18L607,697.82c47.6,0,68.3-.18,112.12-.18l.56-53.22c-283.29-3.82-58.53-.11-94-.16"/></g></svg>