<?xml version="1.0" encoding="utf-8"?>
<!-- Generator: Adobe Illustrator 26.3.1, SVG Export Plug-In . SVG Version: 6.00 Build 0)  -->
<svg version="1.1" id="Ebene_1" xmlns="http://www.w3.org/2000/svg" xmlns:xlink="http://www.w3.org/1999/xlink" x="0px" y="0px"
	 viewBox="0 0 754.5 277.5" style="enable-background:new 0 0 754.5 277.5;" xml:space="preserve">
<g>
	<rect x="432.3" y="158.9" width="126.3" height="26.5"/>
	<path d="M684.4,248.7L684.4,248.7c-0.3,0-0.6,0-0.8,0c-39.3,0-71.2-31.9-71.2-71.2c0-39.3,31.9-71.2,71.2-71.2c0.3,0,0.6,0,0.8,0v0
		h70.4c-0.4-0.4-0.8-0.7-1.2-1.1h1.2V76.7h-71.2c-55.7,0-100.8,45.1-100.8,100.8c0,54.8,43.7,99.3,98.2,100.6v0.1h73.8v-28.5h-1.2
		c0.4-0.4,0.8-0.7,1.2-1.1H684.4z"/>
	<path d="M100.3,71.4C44.7,71.4-0.4,116.5-0.4,172.2c0,55.6,45.1,100.8,100.8,100.8v0h100.8V172.2C201.1,116.5,156,71.4,100.3,71.4z
		 M171.6,243.4h-71.2c-39.3,0-71.2-31.9-71.2-71.2S61,101,100.3,101c39.3,0,71.2,31.9,71.2,71.2V243.4z"/>
	<path d="M319.3,201.7C378.1,193.9,420,156.6,420,101C420,45.3,374.9,0.2,319.3,0.2c-55.7,0-100.8,45.1-100.8,100.8H248
		c0-39.3,31.9-71.2,71.2-71.2c39.3,0,71.2,31.9,71.2,71.2c0,39.3-26.7,65.5-71.2,71.2C259.7,180,232,222.6,218.5,273h12.7v0h186.7
		v-26.5H255.5C265.6,221.9,284.4,206.3,319.3,201.7z"/>
</g>
<g>
</g>
<g>
</g>
<g>
</g>
<g>
</g>
<g>
</g>
<g>
</g>
<g>
</g>
<g>
</g>
<g>
</g>
<g>
</g>
<g>
</g>
<g>
</g>
<g>
</g>
<g>
</g>
<g>
</g>
</svg>
