<svg xmlns="http://www.w3.org/2000/svg" viewBox="0 0 316.87 110.51"><defs><style>.cls-1{fill:#fff;}</style></defs><g id="Ebene_2" data-name="Ebene 2"><g id="Text"><circle cx="40.05" cy="68.37" r="40.05"/><rect x="35.41" y="68.37" width="44.69" height="39.78"/><circle class="cls-1" cx="40.05" cy="68.37" r="28.32"/><circle cx="127.07" cy="40.05" r="40.05"/><circle class="cls-1" cx="127.07" cy="40.05" r="28.32"/><rect class="cls-1" x="86.16" y="40.05" width="40.92" height="40.92"/><rect x="174.98" y="63.1" width="50.19" height="10.54"/><circle cx="271.84" cy="70.46" r="40.05"/><circle class="cls-1" cx="271.84" cy="70.46" r="28.32"/><rect class="cls-1" x="272.18" y="42.14" width="44.69" height="56.64" transform="translate(589.05 140.92) rotate(180)"/><rect x="270.82" y="99.2" width="29.34" height="11.31" transform="translate(570.98 209.71) rotate(180)"/><rect x="271.84" y="30.41" width="28.32" height="11.31" transform="translate(572 72.13) rotate(180)"/><rect class="cls-1" x="40.05" y="68.37" width="28.32" height="28.32"/><rect x="127.69" y="68.37" width="8.31" height="8.1"/><path d="M127.07,73.64h19.85A40,40,0,0,0,87,108.42H98.76A28.31,28.31,0,0,1,127.07,80.1Z"/><rect x="89.98" y="98.1" width="77.14" height="10.54"/></g></g></svg>