<svg xmlns="http://www.w3.org/2000/svg" viewBox="0 0 1276.59 1276.59"><defs><style>.cls-1{fill:#003057;}.cls-2{fill:none;stroke-width:0.84px;}.cls-2,.cls-3{stroke:#003057;}.cls-2,.cls-3,.cls-4{stroke-miterlimit:10;}.cls-3,.cls-4{fill:#fff;}.cls-3{stroke-width:1.35px;}.cls-4{stroke:#fff;stroke-width:1.25px;}</style></defs><g id="Ebene_2" data-name="Ebene 2"><rect class="cls-1" x="0.42" y="0.42" width="1275.75" height="1275.75" rx="85.04"/><rect class="cls-2" x="0.42" y="0.42" width="1275.75" height="1275.75" rx="85.04"/></g><g id="Ebene_1" data-name="Ebene 1"><path class="cls-3" d="M576.82,710.42l-246.74.13L330,651.4l270.83.06"/><path class="cls-4" d="M538.5,984.54c6.49-18.74,16-46,27.84-78.93,15.07-42,20.18-55,40.87-112,8.79-24.26,17.58-48.49,29.24-81.39,23.27-65.65,22.26-65,37.35-106.41,13.65-37.44,15.52-40.85,20.08-56.73,5.74-20,13.51-47,15.86-82.09,1.66-24.74,4.07-67.51-14.8-116.63-5.53-14.39-13.14-33.72-30-54.61-8.51-10.57-42-50.89-100.06-62-33.29-6.37-59.76-.25-74.7,3.29-55.73,13.21-90.22,47.24-109,65.77a307.19,307.19,0,0,0-55,75.16c-5.81,11.24-10.63,22.35-17.85,39-14.34,33.08-23.66,58.45-25.84,64.36-1.81,4.91-25.48,65-72.81,185.09-26.35,66.87-49.26,125-75.4,189.56-4.59,11.33-14.67,36.17-28.19,70.3-14.26,36-25.72,65.54-33.23,85.08L128,1033.15c71.94-185.8,112.43-286.66,136.38-344.93,24.88-60.54,57.35-141.38,74-186.43,1.73-4.68,9.64-26,22.15-55.28,8-18.7,12-28.09,18.32-39.81,7.5-13.84,21.63-39.42,47.92-64.48,14-13.37,32.25-30.74,62-41.58,15.08-5.49,38.65-14.07,67.65-7.75,42.08,9.18,64.52,43,70,51.21,9.11,13.72,13.18,25.86,16.32,35.46,3.34,10.19,10.54,35.35,8.11,77.29-2,33.82-11.68,63.24-30.54,120.73-5.33,16.25-11.77,34.39-24.43,70-12.42,34.94-18.63,52.41-32.41,90.14-14.7,40.24-43,119.57-101.92,287.62l.14-.62,55.5,20c227.87-3.44,453.74,3.45,681.61,0,0-20,1.81-39.55,1.78-59.59a356.82,356.82,0,0,1-38.42-1.94c-3-.33-29.87-6.4-44.93-12C1094,962.53,1075,955,1065.49,950c-29.56-15.33-50.69-26.95-65.42-36.78a354.56,354.56,0,0,1-58.61-49.09,349.48,349.48,0,0,1-52.38-70,332.21,332.21,0,0,1,21.85-358.45,301.79,301.79,0,0,1,26.07-31c8-8.29,19.51-19.31,38.29-33.59,24.2-18.4,50.1-38.08,89.26-53.91,34.84-14.08,64-18.57,81.39-21.14a395.36,395.36,0,0,1,57.48-4.23v.65l.24-59.54c-7.49-.19-17.15-.21-28.41.35a397.2,397.2,0,0,0-48.45,5.52,421.88,421.88,0,0,0-81.39,23,426.41,426.41,0,0,0-43.22,19.85,421.2,421.2,0,0,0-66.77,43.86,405.89,405.89,0,0,0-74.52,78.22,392.73,392.73,0,0,0-62.95,317.64c8,34.52,30.24,108.84,94,178,35.7,38.78,92.26,69.9,118.09,84.28-151.61,2.23-320-.91-471.58,1.31L637,710.75c52.89,0,75.89-.2,124.6-.2l.62-59.15c-314.83-4.24-65-.13-104.45-.17"/></g></svg>