<svg xmlns="http://www.w3.org/2000/svg" viewBox="0 0 1505.12 1505.13"><defs><style>.cls-1{fill:#fff;stroke:#000;}.cls-1,.cls-2,.cls-3{stroke-miterlimit:10;}.cls-2,.cls-3{fill:#003057;stroke:#003057;}.cls-2{stroke-width:1.08px;}</style></defs><g id="Ebene_2" data-name="Ebene 2"><rect class="cls-1" x="0.5" y="0.5" width="1504.12" height="1504.13"/></g><g id="Ebene_1" data-name="Ebene 1"><path class="cls-2" d="M637,820.13l-197,.1L440,773l216.19.05"/><path class="cls-3" d="M606.45,1038.94c5.18-15,12.78-36.72,22.22-63,12-33.5,16.11-43.88,32.63-89.44,7-19.36,14-38.7,23.34-65,18.57-52.4,17.77-51.89,29.81-84.93,10.9-29.89,12.39-32.61,16-45.28,4.58-16,10.78-37.52,12.66-65.54,1.32-19.74,3.25-53.88-11.81-93.09-4.42-11.49-10.49-26.92-23.91-43.59-6.79-8.44-33.5-40.63-79.87-49.5-26.58-5.09-47.71-.2-59.63,2.62-44.49,10.55-72,37.71-87,52.5a245.26,245.26,0,0,0-43.87,60c-4.65,9-8.49,17.84-14.25,31.13-11.45,26.41-18.89,46.66-20.63,51.37-1.44,3.92-20.34,51.87-58.12,147.75-21,53.37-39.33,99.79-60.19,151.31-3.66,9-11.71,28.87-22.5,56.11-11.39,28.73-20.53,52.32-26.53,67.92l43.95,17.44c57.42-148.32,89.74-228.83,108.86-275.34,19.86-48.33,45.77-112.85,59.1-148.82,1.38-3.73,7.7-20.74,17.68-44.12,6.37-14.93,9.56-22.42,14.63-31.78,6-11,17.26-31.47,38.25-51.47C528.49,515.55,543,501.68,566.8,493c12-4.38,30.85-11.23,54-6.18,33.58,7.32,51.5,34.29,55.87,40.87,7.28,11,10.52,20.64,13,28.31,2.66,8.13,8.42,28.21,6.47,61.69-1.57,27-9.32,50.49-24.37,96.38-4.26,13-9.4,27.44-19.5,55.87-9.92,27.89-14.88,41.83-25.88,71.95-11.73,32.13-34.33,95.45-81.35,229.59l.11-.49,44.3,15.92c181.89-2.75,362.19,2.75,544.08,0,0-16,1.45-31.57,1.43-47.57a287.26,287.26,0,0,1-30.68-1.54c-2.35-.27-23.84-5.12-35.86-9.56-18.62-6.9-33.75-12.94-41.34-16.88-23.6-12.23-40.46-21.51-52.22-29.36a282.36,282.36,0,0,1-46.78-39.18A278.53,278.53,0,0,1,886.3,887a265.2,265.2,0,0,1,17.43-286.12,241.53,241.53,0,0,1,20.82-24.75,255.37,255.37,0,0,1,30.56-26.82c19.32-14.68,40-30.39,71.25-43,27.81-11.24,51.07-14.82,65-16.87a314.49,314.49,0,0,1,45.88-3.38v.52l.18-47.53c-6-.15-13.69-.17-22.67.28a317.4,317.4,0,0,0-38.67,4.4,338.68,338.68,0,0,0-152.77,69.19A323.19,323.19,0,0,0,863.8,575.3a313.38,313.38,0,0,0-50.25,253.55,316.85,316.85,0,0,0,75,142.12c28.49,31,73.64,55.8,94.26,67.28-121,1.77-255.4-.73-376.43,1L685,820.4c42.22,0,60.58-.17,99.47-.17L785,773c-251.31-3.39-51.92-.1-83.37-.14"/></g></svg>